<?xml version="1.0" encoding="UTF-8" standalone="no"?>
<!-- Created with Inkscape (http://www.inkscape.org/) -->

<svg
   width="300mm"
   height="300mm"
   viewBox="0 0 300 300"
   version="1.1"
   id="svg5"
   xml:space="preserve"
   sodipodi:docname="logo.svg"
   inkscape:version="1.2.2 (b0a8486541, 2022-12-01)"
   inkscape:export-filename="logo_512x512.png"
   inkscape:export-xdpi="43.349335"
   inkscape:export-ydpi="43.349335"
   xmlns:inkscape="http://www.inkscape.org/namespaces/inkscape"
   xmlns:sodipodi="http://sodipodi.sourceforge.net/DTD/sodipodi-0.dtd"
   xmlns="http://www.w3.org/2000/svg"
   xmlns:svg="http://www.w3.org/2000/svg"
   xmlns:rdf="http://www.w3.org/1999/02/22-rdf-syntax-ns#"
   xmlns:cc="http://creativecommons.org/ns#"
   xmlns:dc="http://purl.org/dc/elements/1.1/"><title
     id="title16220">CaveCube logo</title><sodipodi:namedview
     id="namedview7"
     pagecolor="#505050"
     bordercolor="#ffffff"
     borderopacity="1"
     inkscape:showpageshadow="0"
     inkscape:pageopacity="0"
     inkscape:pagecheckerboard="1"
     inkscape:deskcolor="#505050"
     inkscape:document-units="mm"
     showgrid="false"
     inkscape:zoom="1"
     inkscape:cx="391.5"
     inkscape:cy="537"
     inkscape:window-width="1920"
     inkscape:window-height="986"
     inkscape:window-x="0"
     inkscape:window-y="0"
     inkscape:window-maximized="1"
     inkscape:current-layer="g16063"><inkscape:grid
       type="xygrid"
       id="grid12840"
       originx="0"
       originy="0" /></sodipodi:namedview><defs
     id="defs2"><linearGradient
       id="linearGradient16029"
       inkscape:swatch="solid"><stop
         style="stop-color:#000000;stop-opacity:1;"
         offset="0"
         id="stop16027" /></linearGradient><linearGradient
       id="linearGradient14322"
       inkscape:swatch="solid"><stop
         style="stop-color:#000000;stop-opacity:1;"
         offset="0"
         id="stop14320" /></linearGradient></defs><g
     inkscape:label="Layer 1"
     inkscape:groupmode="layer"
     id="layer1"
     style="fill:#1a1a1a;fill-opacity:0.75291"
     transform="translate(3.5757595,15.300472)"><path
       id="path63012"
       style="display:none;fill:#000000;fill-opacity:0.75291;stroke:#000000;stroke-width:0.203024;stroke-dasharray:none;stroke-opacity:1"
       d="M 260.0662,191.63217 146.47566,256.663 m 0,-8.12885 113.59054,-65.03083 m 0,-8.12886 -113.59054,65.03084 m 0,-8.12886 113.59054,-65.03081 m 0,-8.12887 -113.59054,65.03083 m 0,-8.12886 113.59054,-65.03083 m 0,-8.12885 -113.59054,65.03083 m 0,-8.12887 113.59054,-65.03081 m 0,-8.12888 -113.59054,65.03085 m 0,-8.12885 113.59054,-65.03082 m 0,-8.12886 -113.59054,65.03082 m 0,-8.12883 113.59054,-65.03083 m 0,-8.128876 -113.59054,65.030836 m 0,-8.12886 113.59054,-65.030818 m 0,-8.128857 -113.59054,65.030845 M 32.885128,191.63217 146.47566,256.663 m 0,-8.12885 -113.590532,-65.03083 m 0,-8.12886 113.590532,65.03084 m 0,-8.12886 -113.590532,-65.03081 m 0,-8.12887 113.590532,65.03083 m 0,-8.12886 L 32.885128,150.9879 m 0,-8.12885 113.590532,65.03083 m 0,-8.12887 L 32.885128,134.7302 m 0,-8.12888 113.590532,65.03085 m 0,-8.12885 L 32.885128,118.4725 m 0,-8.12886 113.590532,65.03082 m 0,-8.12883 L 32.885128,102.2148 m 0,-8.128876 113.590532,65.030836 m 0,-8.12886 L 32.885128,85.957082 m 0,-8.128857 113.590532,65.030845 M 252.96679,73.763803 V 203.82545 M 245.86738,77.828212 V 207.88988 M 238.76796,81.892653 V 211.95432 M 231.66855,85.957082 V 216.01873 M 224.56916,90.021498 V 220.08315 M 217.46975,94.085924 V 224.14759 M 210.37034,98.150352 V 228.212 M 203.27095,102.2148 V 232.27644 M 196.17152,106.27921 V 236.34086 M 189.07211,110.34364 V 240.4053 m -7.0994,-125.99722 V 244.46973 M 174.8733,118.4725 V 248.53415 M 167.7739,122.53691 V 252.59856 M 160.67448,126.60132 V 256.663 m -7.09941,-125.99722 1e-5,130.06166 M 139.37625,130.66577 v 130.06167 m -7.0994,-134.12613 V 256.663 m -7.09942,-134.12611 v 130.06167 m -7.0994,-134.12607 v 130.06166 m -7.09942,-134.1261 V 244.46973 M 103.87922,110.34361 V 240.4053 M 96.779803,106.27919 V 236.34086 M 89.680396,102.21477 V 232.27644 M 82.580985,98.150342 V 228.212 M 75.481574,94.085911 V 224.14759 M 68.382169,90.021484 V 220.08315 M 61.282759,85.957069 V 216.01873 M 54.18335,81.89264 V 211.95432 M 47.083943,77.828199 V 207.88988 M 39.984533,73.763791 V 203.82545 M 139.37625,130.66577 252.96679,65.634933 M 132.27685,126.60131 245.86739,61.5705 M 125.17743,122.53689 238.76796,57.506068 M 118.07803,118.47249 231.66856,53.441651 m -7.0994,-4.064434 -113.59055,65.030833 m -7.09939,-4.06444 113.59054,-65.030806 M 210.37036,41.248373 96.779803,106.27919 M 89.680396,102.21477 203.27095,37.183955 M 82.580985,98.150342 196.17152,33.119518 M 189.07211,29.055103 75.481574,94.085911 M 68.382169,90.021484 181.97273,24.990671 M 174.8733,20.92625 61.282759,85.957069 M 54.18335,81.89264 167.7739,16.861815 M 47.083943,77.828199 160.67448,12.797392 M 39.984533,73.763791 153.57508,8.7329718 m -14.19883,-6.1e-6 113.59054,65.0308373 M 132.27683,12.797384 245.86738,77.828212 M 125.17743,16.861815 238.76796,81.892653 M 118.07802,20.92625 231.66855,85.957082 M 110.97861,24.990665 224.56916,90.021498 M 103.87921,29.055103 217.46975,94.085924 M 96.779795,33.119518 210.37034,98.150352 M 89.680396,37.183953 203.27095,102.2148 M 82.58098,41.248373 196.17152,106.27921 M 75.481579,45.312804 189.07211,110.34364 M 68.382164,49.37722 181.97271,114.40808 M 61.282764,53.441657 174.8733,118.4725 M 54.183359,57.506075 167.77389,122.53691 M 47.083943,61.570508 160.67448,126.60132 M 39.984543,65.63494 153.57508,130.66578 M 260.0662,77.828225 v -8.128849 m 0,24.386548 v -8.128842 m 0,24.386558 v -8.12884 m 0,24.38652 v -8.12882 m 0,24.38655 v -8.12885 m 0,24.38656 v -8.12886 m 0,24.38656 v -8.12883 m 0,24.38654 v -8.12885 m 0,-97.546238 v -8.128857 m 0,24.386575 v -8.128876 m 0,24.386576 v -8.12886 m 0,24.38656 v -8.12888 m 0,24.38658 v -8.12885 m 0,24.38658 v -8.12887 m 0,24.38656 v -8.12886 m 0,24.38659 v -8.12888 m -113.59054,-48.7731 v -8.12886 m 0,24.38655 v -8.12886 m 0,24.38656 v -8.12883 m 0,24.38654 v -8.12885 m 0,24.38656 v -8.12887 m 0,24.38658 v -8.12886 m 0,24.38657 v -8.12886 m 0,24.38656 v -8.12885 m 0,-97.54625 v -8.12883 m 0,24.38656 v -8.12887 m 0,24.38656 v -8.12886 m 0,24.38655 v -8.12884 m 0,24.38656 v -8.12885 m 0,24.38656 v -8.12885 m 0,24.38656 v -8.12885 m 0,24.38656 V 256.663 M 32.885128,77.828225 v -8.128852 m 0,24.386551 v -8.128842 m 0,24.386558 v -8.12884 m 0,24.38652 v -8.12882 m 0,24.38655 v -8.12885 m 0,24.38656 v -8.12886 m 0,24.38656 v -8.12883 m 0,24.38654 v -8.12885 m 0,-97.546238 v -8.128857 m 0,24.386575 v -8.128876 m 0,24.386576 v -8.12886 m 0,24.38656 v -8.12888 m 0,24.38658 v -8.12885 m 0,24.38658 v -8.12887 m 0,24.38656 v -8.12886 m 0,24.38659 v -8.12888 m 7.099415,-125.997229 -7.099417,4.064433 m 21.298235,-12.193299 -7.099416,4.064433 m 21.298219,-12.193284 -7.099402,4.064434 m 21.298219,-12.193285 -7.099402,4.064431 m 21.29822,-12.193284 -7.099402,4.064434 m 21.298213,-12.193287 -7.0994,4.064436 m 21.29822,-12.193287 -7.09941,4.064436 m 21.29823,-12.1932863 -7.09941,4.0644183 m -85.192895,48.773124 -7.099417,4.064433 m 21.298234,-12.193283 -7.099417,4.064417 m 21.298234,-12.193271 -7.099415,4.06442 m 21.298233,-12.19327 -7.099416,4.064419 m 21.298229,-12.19327 -7.099411,4.064417 m 21.298221,-12.193268 -7.09941,4.064415 m 21.29823,-12.193283 -7.09941,4.064432 m 21.29822,-12.1932742 -7.0994,4.0644239 m 14.19883,251.9944743 -7.09942,4.06442 m 21.29824,-12.1933 -7.09942,4.06444 m 21.29823,-12.19327 -7.09941,4.06442 m 21.29822,-12.19329 -7.09941,4.06444 m 21.29823,-12.1933 -7.09939,4.06444 m 21.29821,-12.19329 -7.09941,4.06444 m 21.29821,-12.19327 -7.09941,4.06441 m 21.29824,-12.19328 -7.09941,4.06443 m -85.1929,48.77312 -7.09941,4.06444 m 21.29823,-12.19329 -7.09941,4.06441 m 21.29822,-12.19326 -7.0994,4.06443 m 21.29824,-12.19329 -7.09943,4.06442 m 21.29823,-12.19327 -7.09941,4.06441 m 21.29821,-12.19327 -7.09939,4.06442 m 21.29822,-12.19327 -7.09942,4.06444 m 21.29823,-12.19327 -7.0994,4.0644 m -99.39171,-73.15967 -7.09942,4.06443 m 21.29824,-12.1933 -7.09942,4.06441 m 21.29823,-12.19324 -7.09941,4.06442 m 21.29822,-12.19329 -7.09941,4.06443 m 21.29823,-12.193288 -7.09939,4.064448 m 21.29821,-12.193302 -7.09941,4.064426 m 21.29821,-12.193271 -7.09941,4.064429 m 21.29824,-12.193277 -7.09941,4.064407 m -85.1929,48.773108 -7.09941,4.06446 m 21.29823,-12.19328 -7.09941,4.06441 m 21.29822,-12.19327 -7.0994,4.06444 m 21.29824,-12.19328 -7.09943,4.06441 m 21.29823,-12.193286 -7.09941,4.064428 m 21.29821,-12.19327 -7.09939,4.064416 m 21.29822,-12.193273 -7.09942,4.064428 m 21.29823,-12.193272 -7.0994,4.064424 m 0,-8.128868 7.09941,4.064447 m -21.29824,-12.193315 7.09943,4.064433 m -21.29823,-12.193285 7.0994,4.064434 m -21.2982,-12.193277 7.0994,4.064431 m -21.29824,-12.193283 7.09943,4.064433 m -21.29822,-12.193284 7.09938,4.064433 m -21.29821,-12.193287 7.0994,4.064436 m -21.29822,-12.1932802 7.0994,4.0644172 m 85.19291,48.773112 7.0994,4.064435 m -21.29823,-12.193286 7.0994,4.064418 m -21.2982,-12.193264 7.09942,4.064412 m -21.29823,-12.193262 7.09941,4.064419 m -21.29825,-12.19327 7.09943,4.064418 m -21.29824,-12.193269 7.09943,4.064418 m -21.29825,-12.193277 7.09942,4.064427 m -21.29824,-12.1932726 7.09942,4.0644244 m -14.19883,251.9944672 7.09941,4.06442 m -21.29823,-12.1933 7.09942,4.06444 m -21.29824,-12.19327 7.09942,4.06442 m -21.298227,-12.19329 7.099417,4.06444 m -21.298235,-12.1933 7.099411,4.06444 m -21.298227,-12.19329 7.099405,4.06444 m -21.298224,-12.19327 7.099409,4.06441 m -21.298226,-12.19328 7.09941,4.06443 m 85.192907,48.77312 7.0994,4.06444 m -21.29822,-12.19329 7.0994,4.06441 m -21.29821,-12.19326 7.09939,4.06443 m -21.298214,-12.19329 7.099407,4.06442 m -21.298229,-12.19327 7.099411,4.06441 m -21.298226,-12.19327 7.09941,4.06442 m -21.298226,-12.19327 7.099407,4.06444 m -21.298222,-12.19327 7.099405,4.0644 m 99.391717,-73.15968 7.09941,4.06443 m -21.29823,-12.19331 7.09942,4.06442 m -21.29824,-12.19326 7.09942,4.06444 m -21.298227,-12.1933 7.099417,4.06442 M 82.580985,98.150342 89.680396,102.21477 M 68.382169,90.021484 75.481574,94.085911 M 54.18335,81.89264 l 7.099409,4.064429 m -21.298226,-12.193278 7.09941,4.064408 m 85.192907,48.773111 7.0994,4.06446 m -21.29822,-12.19328 7.0994,4.0644 m -21.29821,-12.19328 7.09939,4.06444 m -21.298214,-12.19328 7.099407,4.06442 m -21.298229,-12.193279 7.099411,4.064431 m -21.298226,-12.193273 7.09941,4.064415 M 47.083943,77.828199 54.18335,81.89264 m -21.298222,-12.193274 7.099405,4.064425"
       inkscape:label="GRID" /><g
       id="g16063"
       inkscape:label="block"
       transform="matrix(1.5298073,0,0,1.5298073,-8.735303,-69.070081)"
       style="fill:#1a1a1a;fill-opacity:0.75291"><path
         id="path468"
         style="fill:#ffffff;fill-opacity:0.746449;stroke:#000000;stroke-width:0.499999;stroke-linecap:round;stroke-linejoin:round"
         d="M 146.47555 4.668335 L 32.885064 69.699508 L 39.984372 73.763859 L 139.37624 130.66581 L 146.47555 134.73016 L 260.06603 69.699508 L 252.96672 65.635156 L 153.57485 8.7332031 L 146.47555 4.668335 z M 146.47555 12.797555 L 245.86741 69.699508 L 146.47555 126.60146 L 47.084197 69.699508 L 146.47555 12.797555 z "
         transform="matrix(0.65367711,0,0,0.65367711,5.7100676,45.14953)" /><path
         id="path477"
         style="fill:#ffffff;fill-opacity:0.746449;stroke:#000000;stroke-width:0.499999;stroke-linecap:round;stroke-linejoin:round"
         d="M 32.885064 69.699508 L 32.885064 199.76082 L 146.47555 264.79199 L 146.47555 134.73016 L 32.885064 69.699508 z M 39.984372 81.892562 L 139.37624 138.79451 L 139.37624 252.59842 L 39.984372 195.69647 L 39.984372 81.892562 z "
         transform="matrix(0.65367711,0,0,0.65367711,5.7100676,45.14953)" /><path
         id="path477-6"
         style="fill:#ffffff;fill-opacity:0.746449;stroke:#000000;stroke-width:0.326838;stroke-linecap:round;stroke-linejoin:round"
         d="m 175.70942,90.710586 v 85.018104 l -74.2515,42.50939 v -85.01844 z m -4.64066,7.97032 -64.97019,37.195504 v 74.39101 l 64.97019,-37.1955 z" /><path
         style="fill:#000000;fill-opacity:0.746449;stroke:#000000;stroke-width:0.326838;stroke-linecap:round;stroke-linejoin:round"
         d="m 31.847042,98.680884 64.970085,37.195526 3e-6,74.39102 -64.970089,-37.19552 z"
         id="path654" /><path
         style="fill:#000000;fill-opacity:0.746449;stroke:#000000;stroke-width:0.326838;stroke-linecap:round;stroke-linejoin:round"
         d="m 171.06877,98.680821 -64.97008,37.195519 -1e-5,74.39102 64.97009,-37.19552 z"
         id="path654-7" /><path
         style="fill:#000000;fill-opacity:0.746449;stroke:#000000;stroke-width:0.326838;stroke-linecap:round;stroke-linejoin:round"
         d="M 36.487765,90.710409 101.45788,127.90595 166.42787,90.710448 101.45786,53.514897 Z"
         id="path743" /></g></g><metadata
     id="metadata16218"><rdf:RDF><cc:Work
         rdf:about=""><cc:license
           rdf:resource="http://creativecommons.org/licenses/by-sa/4.0/" /><dc:title>CaveCube logo</dc:title><dc:creator><cc:Agent><dc:title>Kirill GPRB &lt;https://github.com/undnull&gt;</dc:title></cc:Agent></dc:creator></cc:Work><cc:License
         rdf:about="http://creativecommons.org/licenses/by-sa/4.0/"><cc:permits
           rdf:resource="http://creativecommons.org/ns#Reproduction" /><cc:permits
           rdf:resource="http://creativecommons.org/ns#Distribution" /><cc:requires
           rdf:resource="http://creativecommons.org/ns#Notice" /><cc:requires
           rdf:resource="http://creativecommons.org/ns#Attribution" /><cc:permits
           rdf:resource="http://creativecommons.org/ns#DerivativeWorks" /><cc:requires
           rdf:resource="http://creativecommons.org/ns#ShareAlike" /></cc:License></rdf:RDF></metadata></svg>
